<svg xmlns="http://www.w3.org/2000/svg" xmlns:xlink="http://www.w3.org/1999/xlink" width="1280" height="450" version="1.1" viewBox="0 0 1280 450"><title>iStock-660311458@1x</title><desc>Created with Sketch.</desc><defs><linearGradient id="linearGradient-1" x1="1%" x2="100%" y1="50%" y2="50%"><stop offset="0%" stop-color="#009BFF"/><stop offset="100%" stop-color="#4A90E2"/></linearGradient><rect id="path-2" width="1280" height="450" x="0" y="0"/><linearGradient id="linearGradient-4" x1="0%" x2="100%" y1="0%" y2="100%"><stop offset="0%" stop-color="#009BFF"/><stop offset="100%" stop-color="#00E8FF"/></linearGradient></defs><g id="Page-1" fill="none" fill-rule="evenodd" stroke="none" stroke-width="1"><g id="Action-Button"><g id="iStock-660311458"><mask id="mask-3" fill="#fff"><use xlink:href="#path-2"/></mask><use id="Mask" fill="url(#linearGradient-1)" xlink:href="#path-2" style="mix-blend-mode:multiply"/><g id="Group" fill="url(#linearGradient-4)" mask="url(#mask-3)"><g transform="translate(696.000000, -72.000000)"><path id="bg-shape" d="M84,17 L949.903587,17 L1092.14811,318.887452 L597.470556,591.63444 C552.810544,616.258326 496.775306,603.329919 467.417757,561.628759 L84,17 Z"/><rect id="Rectangle-7" width="8" height="241" x="213.393" y="150.502" rx="4" transform="translate(217.392569, 271.002127) scale(-1, 1) rotate(35.000000) translate(-217.392569, -271.002127)"/><rect id="Rectangle-7-Copy-11" width="6" height="181" x="569.366" y="137.354" rx="3" transform="translate(572.366124, 227.853989) scale(-1, 1) rotate(35.000000) translate(-572.366124, -227.853989)"/><rect id="Rectangle-7-Copy-8" width="30" height="400" x="274.003" y="123.434" rx="15" transform="translate(289.002568, 323.434055) scale(-1, 1) rotate(35.000000) translate(-289.002568, -323.434055)"/><rect id="Rectangle-7-Copy-12" width="23" height="300" x="297.957" y="20.469" rx="11.5" transform="translate(309.456714, 170.468936) scale(-1, 1) rotate(35.000000) translate(-309.456714, -170.468936)"/><rect id="Rectangle-7-Copy-6" width="4.847" height="241" x="108.365" y="61.411" rx="2.424" transform="translate(110.788782, 181.911050) scale(-1, 1) rotate(36.000000) translate(-110.788782, -181.911050)"/><rect id="Rectangle-7-Copy-7" width="12" height="241" x="69.682" y="63.513" opacity=".144" rx="6" transform="translate(75.682225, 184.013259) scale(-1, 1) rotate(36.000000) translate(-75.682225, -184.013259)"/></g></g></g></g></g></svg>